<svg width="24" height="24" viewBox="0 0 24 24" fill="none" xmlns="http://www.w3.org/2000/svg">
<circle cx="12" cy="12" r="11" fill="#FAC900" stroke="white" stroke-width="2"/>
<path fill-rule="evenodd" clip-rule="evenodd" d="M11.3332 14C11.3332 14.3681 11.6316 14.6666 11.9998 14.6666C12.368 14.6666 12.6665 14.3681 12.6665 14C12.5673 13.1961 12.9248 12.4041 13.5932 11.9466C14.6789 11.5454 15.3818 10.4897 15.3332 9.33328C15.2366 7.77067 13.8963 6.57931 12.3332 6.66662H11.6665C10.1033 6.57931 8.76306 7.77067 8.6665 9.33328C8.6665 9.70147 8.96498 9.99995 9.33317 9.99995C9.70136 9.99995 9.99984 9.70147 9.99984 9.33328C10.1041 8.51166 10.842 7.92134 11.6665 7.99995H12.3332C13.1692 7.92235 13.9122 8.53158 13.9998 9.36662C14.0338 9.95881 13.6724 10.5022 13.1132 10.7H13.0532C11.8805 11.3657 11.2072 12.6573 11.3332 14ZM11.3332 16.6666C11.3332 17.0348 11.6316 17.3333 11.9998 17.3333C12.368 17.3333 12.6665 17.0348 12.6665 16.6666C12.6665 16.2984 12.368 16 11.9998 16C11.6316 16 11.3332 16.2984 11.3332 16.6666Z" fill="black"/>
</svg>
